# File created by Blade
# Date/Time:  Tue Jan 27 18:05:51 2015
#---------------------------------------------------------
:version 1.10
:name HOM
:units
  mass 1.0
  length 1.000000
  angle deg
:documentation
     Acclaim Skeleton File
:root
   axis xyz
   order TX TY TZ RX RY RZ
   position 0.000000 0.000000 0.000000
   orientation 0 0 0
:bonedata
   begin
      id 1
      name Spine_dum
      direction 0.000000 1.000000 0.000000
      length 5.195262
      axis 0.0 0.0 0.0 xyz
   end
   begin
      id 2
      name LeftUpLeg_dum
      direction 1.000000 0.000000 0.000000
      length 3.351363
      axis 0.0 0.0 0.0 xyz
   end
   begin
      id 3
      name RightUpLeg_dum
      direction -1.000000 0.000000 0.000000
      length 3.351363
      axis 0.0 0.0 0.0 xyz
   end
   begin
      id 4
      name Spine
      direction 0.000000 1.000000 0.000000
      length 0.000000
      axis 0.0 0.0 0.0 xyz
      dof rx ry rz
   end
   begin
      id 5
      name Spine_dum1
      direction 0.000000 1.000000 0.000000
      length 15.653875
      axis 0.0 0.0 0.0 xyz
   end
   begin
      id 6
      name Spine_dum2
      direction 0.000000 1.000000 0.000000
      length 10.329768
      axis 0.0 0.0 0.0 xyz
   end
   begin
      id 7
      name Spine_dum3
      direction 0.000000 1.000000 0.000000
      length 10.329768
      axis 0.0 0.0 0.0 xyz
   end
   begin
      id 8
      name Head
      direction 0.000000 1.000000 0.000000
      length 4.527550
      axis 0.0 0.0 0.0 xyz
      dof rx ry rz
   end
   begin
      id 9
      name LeftShoulder
      direction 1.000000 0.000000 0.000000
      length 6.996006
      axis 0.0 0.0 -90.0 xyz
      dof rx ry rz
   end
   begin
      id 10
      name LeftArm
      direction 1.000000 0.000000 0.000000
      length 10.209302
      axis 0.0 0.0 -90.0 xyz
      dof rx ry rz
   end
   begin
      id 11
      name LeftForeArm
      direction 1.000000 0.000000 0.000000
      length 8.563163
      axis 0.0 0.0 -90.0 xyz
      dof ry rz rx
   end
   begin
      id 12
      name LeftHand
      direction 0.000000 0.000000 0.000000
      length 0.000000
      axis 0.0 0.0 -90.0 xyz
      dof rx ry rz
   end
   begin
      id 13
      name LeftHand_dum1
      direction 0.000000 0.000000 0.000000
      length 0.000000
      axis 0.0 0.0 -90.0 xyz
   end
   begin
      id 14
      name LeftHand_dum2
      direction 1.000000 0.000000 0.000000
      length 3.937000
      axis 0.0 0.0 -90.0 xyz
   end
   begin
      id 15
      name LeftHandThumb1
      direction 0.000000 0.000000 1.000000
      length 3.937000
      axis 0.0 0.0 -90.0 xyz
      dof rx rz ry
   end
   begin
      id 16
      name RightShoulder
      direction -1.000000 0.000000 0.000000
      length 6.996006
      axis 0.0 0.0 90.0 xyz
      dof rx ry rz
   end
   begin
      id 17
      name RightArm
      direction -1.000000 0.000000 0.000000
      length 10.209302
      axis 0.0 0.0 90.0 xyz
      dof rx ry rz
   end
   begin
      id 18
      name RightForeArm
      direction -1.000000 0.000000 0.000000
      length 8.563163
      axis 0.0 0.0 90.0 xyz
      dof ry rz rx
   end
   begin
      id 19
      name RightHand
      direction 0.000000 0.000000 0.000000
      length 0.000000
      axis 0.0 0.0 90.0 xyz
      dof rx ry rz
   end
   begin
      id 20
      name RightHand_dum1
      direction 0.000000 0.000000 0.000000
      length 0.000000
      axis 0.0 0.0 90.0 xyz
   end
   begin
      id 21
      name RightHand_dum2
      direction -1.000000 0.000000 0.000000
      length 3.937000
      axis 0.0 0.0 90.0 xyz
   end
   begin
      id 22
      name RightHandThumb1
      direction 0.000000 0.000000 1.000000
      length 3.937000
      axis 0.0 0.0 90.0 xyz
      dof rx rz ry
   end
   begin
      id 23
      name LeftUpLeg
      direction 0.000000 -1.000000 0.000000
      length 16.346831
      axis 0.0 0.0 0.0 xyz
      dof rx ry rz
   end
   begin
      id 24
      name LeftLeg
      direction 0.000000 -1.000000 0.000000
      length 13.959795
      axis 0.0 0.0 0.0 xyz
      dof rx ry rz
   end
   begin
      id 25
      name LeftFoot
      direction 0.000000 -0.258819 0.965926
      length 5.165550
      axis 15.0 0.0 0.0 xyz
      dof rx ry rz
   end
   begin
      id 26
      name LeftToeBase
      direction 0.000000 0.000000 1.000000
      length 2.952750
      axis 0.0 0.0 0.0 xyz
      dof rx ry rz
   end
   begin
      id 27
      name RightUpLeg
      direction 0.000000 -1.000000 0.000000
      length 16.346831
      axis 0.0 0.0 0.0 xyz
      dof rx ry rz
   end
   begin
      id 28
      name RightLeg
      direction 0.000000 -1.000000 0.000000
      length 13.959795
      axis 0.0 0.0 0.0 xyz
      dof rx ry rz
   end
   begin
      id 29
      name RightFoot
      direction 0.000000 -0.258819 0.965926
      length 5.165550
      axis 15.0 0.0 0.0 xyz
      dof rx ry rz
   end
   begin
      id 30
      name RightToeBase
      direction 0.000000 0.000000 1.000000
      length 2.952750
      axis 0.0 0.0 0.0 xyz
      dof rx ry rz
   end
:hierarchy
   begin
      root Spine_dum LeftUpLeg_dum RightUpLeg_dum
      Spine_dum Spine
      LeftUpLeg_dum LeftUpLeg
      RightUpLeg_dum RightUpLeg
      Spine Spine_dum1 Spine_dum2 Spine_dum3
      Spine_dum1 Head
      Spine_dum2 LeftShoulder
      Spine_dum3 RightShoulder
      LeftShoulder LeftArm
      LeftArm LeftForeArm
      LeftForeArm LeftHand
      LeftHand LeftHand_dum1 LeftHand_dum2
      LeftHand_dum1 LeftHandThumb1
      RightShoulder RightArm
      RightArm RightForeArm
      RightForeArm RightHand
      RightHand RightHand_dum1 RightHand_dum2
      RightHand_dum1 RightHandThumb1
      LeftUpLeg LeftLeg
      LeftLeg LeftFoot
      LeftFoot LeftToeBase
      RightUpLeg RightLeg
      RightLeg RightFoot
      RightFoot RightToeBase
   end

# File created by Blade
# Date/Time:  Tue Jan 27 18:05:41 2015
# Frame Rate: 120.000 fps
#------------------------------------------------------
:FULLY-SPECIFIED
:DEGREES
1315
root -1.170960 31.873480 -5.778523 7.554446 27.742102 6.551440
Spine -8.902801 4.054088 -4.321189
Head -1.850372 -15.136672 -7.505357
LeftShoulder -8.134888 14.537329 5.324120
LeftArm 24.846724 40.777210 -70.651798
LeftForeArm -2.732344 0.000000 13.688730
LeftHand -10.852097 -0.000000 -6.065764
LeftHandThumb1 -26.253704 0.000000 33.147579
RightShoulder -0.237870 43.805486 -44.552260
RightArm 69.548807 33.800865 117.117934
RightForeArm 41.365616 -0.000000 97.396767
RightHand -3.564131 -0.000000 6.199764
RightHandThumb1 -24.326973 -0.000000 -32.862282
LeftUpLeg -2.764722 -13.043542 -1.795004
LeftLeg 1.351445 -0.000000 -0.000000
LeftFoot -12.715808 9.156185 -23.673104
LeftToeBase 8.369064 -0.000000 -0.000000
RightUpLeg 6.344611 -16.309284 -4.821260
RightLeg -3.987363 -0.000000 0.000000
RightFoot -19.314116 -21.998817 13.278353
RightToeBase 5.396073 -0.000000 -0.000000
1316
root -1.167078 31.873218 -5.776818 7.547720 27.693711 6.553802
Spine -8.905150 4.044845 -4.308587
Head -1.886579 -15.256107 -7.413185
LeftShoulder -8.152899 14.546173 5.322766
LeftArm 24.899668 40.783330 -70.633112
LeftForeArm -2.647010 -0.000000 13.659225
LeftHand -10.875608 -0.000000 -6.058483
LeftHandThumb1 -26.253704 0.000000 33.147579
RightShoulder -0.249099 43.814374 -44.576267
RightArm 69.405577 33.636879 116.629483
RightForeArm 41.261662 0.000000 97.188042
RightHand -3.649381 -0.000000 6.094588
RightHandThumb1 -24.326973 -0.000000 -32.862282
LeftUpLeg -2.752699 -13.023237 -1.812090
LeftLeg 1.368096 -0.000000 -0.000000
LeftFoot -12.751345 9.170659 -23.699213
LeftToeBase 8.470737 -0.000000 -0.000000
RightUpLeg 6.348362 -16.311605 -4.840979
RightLeg -3.983040 -0.000000 0.000000
RightFoot -19.316868 -21.939550 13.291468
RightToeBase 5.393197 -0.000000 -0.000000
1317
root -1.163802 31.873057 -5.775443 7.544440 27.638462 6.558060
Spine -8.910265 4.057595 -4.303762
Head -1.925349 -15.394779 -7.305399
LeftShoulder -8.132586 14.526303 5.349755
LeftArm 24.938195 40.866887 -70.603406
LeftForeArm -2.673044 -0.000000 13.629474
LeftHand -10.880909 -0.000000 -6.069236
LeftHandThumb1 -26.253704 0.000000 33.147579
RightShoulder -0.265344 43.873421 -44.605521
RightArm 69.233238 33.513133 116.154281
RightForeArm 41.134303 -0.000000 96.957335
RightHand -3.627924 0.000000 6.314468
RightHandThumb1 -24.326973 -0.000000 -32.862282
LeftUpLeg -2.738222 -13.004454 -1.825753
LeftLeg 1.369395 -0.000000 -0.000000
LeftFoot -12.762764 9.172874 -23.704277
LeftToeBase 8.497502 -0.000000 -0.000000
RightUpLeg 6.346591 -16.285767 -4.857340
RightLeg -3.980579 -0.000000 0.000000
RightFoot -19.305577 -21.927628 13.253181
RightToeBase 5.409803 -0.000000 -0.000000
1318
root -1.158206 31.873132 -5.774179 7.547458 27.583706 6.581435
Spine -8.913564 4.055140 -4.311936
Head -1.971898 -15.500093 -7.180903
LeftShoulder -8.132558 14.520149 5.352024
LeftArm 24.952352 40.896693 -70.587204
LeftForeArm -2.621337 -0.000000 13.620771
LeftHand -10.789198 -0.000000 -5.968842
LeftHandThumb1 -26.253704 0.000000 33.147579
RightShoulder -0.249623 43.894393 -44.606063
RightArm 69.105398 33.341408 115.643598
RightForeArm 40.982037 0.000000 96.747156
RightHand -3.698695 -0.000000 6.273518
RightHandThumb1 -24.326973 -0.000000 -32.862282
LeftUpLeg -2.701685 -13.072671 -1.861443
LeftLeg 1.331703 -0.000000 -0.000000
LeftFoot -12.787784 9.297468 -23.729319
LeftToeBase 8.382345 -0.000000 -0.000000
RightUpLeg 6.351414 -16.288269 -4.900765
RightLeg -3.977398 -0.000000 0.000000
RightFoot -19.309178 -21.876349 13.256239
RightToeBase 5.392240 -0.000000 -0.000000
